<svg id="visual" viewBox="0 0 100 540" width="100" height="540" xmlns="http://www.w3.org/2000/svg" xmlns:xlink="http://www.w3.org/1999/xlink" version="1.1"><rect x="0" y="0" width="100" height="540" fill="#12181b"></rect><path d="M20 540L24.8 527.2C29.7 514.3 39.3 488.7 39.7 463C40 437.3 31 411.7 31.5 386C32 360.3 42 334.7 47.2 308.8C52.3 283 52.7 257 49.8 231.2C47 205.3 41 179.7 38.2 154C35.3 128.3 35.7 102.7 36.5 77C37.3 51.3 38.7 25.7 39.3 12.8L40 0L100 0L100 12.8C100 25.7 100 51.3 100 77C100 102.7 100 128.3 100 154C100 179.7 100 205.3 100 231.2C100 257 100 283 100 308.8C100 334.7 100 360.3 100 386C100 411.7 100 437.3 100 463C100 488.7 100 514.3 100 527.2L100 540Z" fill="#498afb"></path><path d="M50 540L48.2 527.2C46.3 514.3 42.7 488.7 41.3 463C40 437.3 41 411.7 44.7 386C48.3 360.3 54.7 334.7 55.2 308.8C55.7 283 50.3 257 48.7 231.2C47 205.3 49 179.7 52.2 154C55.3 128.3 59.7 102.7 57.3 77C55 51.3 46 25.7 41.5 12.8L37 0L100 0L100 12.8C100 25.7 100 51.3 100 77C100 102.7 100 128.3 100 154C100 179.7 100 205.3 100 231.2C100 257 100 283 100 308.8C100 334.7 100 360.3 100 386C100 411.7 100 437.3 100 463C100 488.7 100 514.3 100 527.2L100 540Z" fill="#00b5ff"></path><path d="M56 540L56.7 527.2C57.3 514.3 58.7 488.7 59.5 463C60.3 437.3 60.7 411.7 61.2 386C61.7 360.3 62.3 334.7 64.8 308.8C67.3 283 71.7 257 72.2 231.2C72.7 205.3 69.3 179.7 66.2 154C63 128.3 60 102.7 59.5 77C59 51.3 61 25.7 62 12.8L63 0L100 0L100 12.8C100 25.7 100 51.3 100 77C100 102.7 100 128.3 100 154C100 179.7 100 205.3 100 231.2C100 257 100 283 100 308.8C100 334.7 100 360.3 100 386C100 411.7 100 437.3 100 463C100 488.7 100 514.3 100 527.2L100 540Z" fill="#00d5eb"></path><path d="M75 540L76.5 527.2C78 514.3 81 488.7 80.8 463C80.7 437.3 77.3 411.7 78.3 386C79.3 360.3 84.7 334.7 84.8 308.8C85 283 80 257 78.5 231.2C77 205.3 79 179.7 78.5 154C78 128.3 75 102.7 75.3 77C75.7 51.3 79.3 25.7 81.2 12.8L83 0L100 0L100 12.8C100 25.7 100 51.3 100 77C100 102.7 100 128.3 100 154C100 179.7 100 205.3 100 231.2C100 257 100 283 100 308.8C100 334.7 100 360.3 100 386C100 411.7 100 437.3 100 463C100 488.7 100 514.3 100 527.2L100 540Z" fill="#0be586"></path></svg>