<svg id="visual" viewBox="0 0 300 600" width="150" height="300" xmlns="http://www.w3.org/2000/svg" xmlns:xlink="http://www.w3.org/1999/xlink" version="1.1"><rect x="0" y="0" width="300" height="600" fill="#12181b"></rect><path d="M97 600L91.5 585.7C86 571.3 75 542.7 75.8 514.2C76.7 485.7 89.3 457.3 98.8 428.8C108.3 400.3 114.7 371.7 122.8 343C131 314.3 141 285.7 136.2 257C131.3 228.3 111.7 199.7 109.3 171.2C107 142.7 122 114.3 123.5 85.8C125 57.3 113 28.7 107 14.3L101 0L300 0L300 14.3C300 28.7 300 57.3 300 85.8C300 114.3 300 142.7 300 171.2C300 199.7 300 228.3 300 257C300 285.7 300 314.3 300 343C300 371.7 300 400.3 300 428.8C300 457.3 300 485.7 300 514.2C300 542.7 300 571.3 300 585.7L300 600Z" fill="#ff4088"></path><path d="M166 600L157.2 585.7C148.3 571.3 130.7 542.7 129 514.2C127.3 485.7 141.7 457.3 144.8 428.8C148 400.3 140 371.7 135.3 343C130.7 314.3 129.3 285.7 132.7 257C136 228.3 144 199.7 147.2 171.2C150.3 142.7 148.7 114.3 151.7 85.8C154.7 57.3 162.3 28.7 166.2 14.3L170 0L300 0L300 14.3C300 28.7 300 57.3 300 85.8C300 114.3 300 142.7 300 171.2C300 199.7 300 228.3 300 257C300 285.7 300 314.3 300 343C300 371.7 300 400.3 300 428.8C300 457.3 300 485.7 300 514.2C300 542.7 300 571.3 300 585.7L300 600Z" fill="#ff536c"></path><path d="M202 600L195.2 585.7C188.3 571.3 174.7 542.7 170.3 514.2C166 485.7 171 457.3 177.7 428.8C184.3 400.3 192.7 371.7 197.5 343C202.3 314.3 203.7 285.7 206 257C208.3 228.3 211.7 199.7 212.2 171.2C212.7 142.7 210.3 114.3 202.3 85.8C194.3 57.3 180.7 28.7 173.8 14.3L167 0L300 0L300 14.3C300 28.7 300 57.3 300 85.8C300 114.3 300 142.7 300 171.2C300 199.7 300 228.3 300 257C300 285.7 300 314.3 300 343C300 371.7 300 400.3 300 428.8C300 457.3 300 485.7 300 514.2C300 542.7 300 571.3 300 585.7L300 600Z" fill="#ff6955"></path><path d="M262 600L262.5 585.7C263 571.3 264 542.7 264.7 514.2C265.3 485.7 265.7 457.3 263.3 428.8C261 400.3 256 371.7 250.3 343C244.7 314.3 238.3 285.7 240.2 257C242 228.3 252 199.7 251.7 171.2C251.3 142.7 240.7 114.3 237.7 85.8C234.7 57.3 239.3 28.7 241.7 14.3L244 0L300 0L300 14.3C300 28.7 300 57.3 300 85.8C300 114.3 300 142.7 300 171.2C300 199.7 300 228.3 300 257C300 285.7 300 314.3 300 343C300 371.7 300 400.3 300 428.8C300 457.3 300 485.7 300 514.2C300 542.7 300 571.3 300 585.7L300 600Z" fill="#fa8142"></path></svg>