<svg id="visual" viewBox="0 0 900 600" width="900" height="600" xmlns="http://www.w3.org/2000/svg" xmlns:xlink="http://www.w3.org/1999/xlink" version="1.1"><rect x="0" y="0" width="900" height="600" fill="#12181b"></rect><path d="M564 600L563.7 585.7C563.3 571.3 562.7 542.7 578.8 514.2C595 485.7 628 457.3 644.8 428.8C661.7 400.3 662.3 371.7 661.3 343C660.3 314.3 657.7 285.7 652.8 257C648 228.3 641 199.7 630.7 171.2C620.3 142.7 606.7 114.3 594.5 85.8C582.3 57.3 571.7 28.7 566.3 14.3L561 0L900 0L900 14.3C900 28.7 900 57.3 900 85.8C900 114.3 900 142.7 900 171.2C900 199.7 900 228.3 900 257C900 285.7 900 314.3 900 343C900 371.7 900 400.3 900 428.8C900 457.3 900 485.7 900 514.2C900 542.7 900 571.3 900 585.7L900 600Z" fill="#ff4088"></path><path d="M714 600L700.5 585.7C687 571.3 660 542.7 652.2 514.2C644.3 485.7 655.7 457.3 658.3 428.8C661 400.3 655 371.7 644 343C633 314.3 617 285.7 618.5 257C620 228.3 639 199.7 639.2 171.2C639.3 142.7 620.7 114.3 625 85.8C629.3 57.3 656.7 28.7 670.3 14.3L684 0L900 0L900 14.3C900 28.7 900 57.3 900 85.8C900 114.3 900 142.7 900 171.2C900 199.7 900 228.3 900 257C900 285.7 900 314.3 900 343C900 371.7 900 400.3 900 428.8C900 457.3 900 485.7 900 514.2C900 542.7 900 571.3 900 585.7L900 600Z" fill="#ff4e73"></path><path d="M757 600L740.7 585.7C724.3 571.3 691.7 542.7 689.5 514.2C687.3 485.7 715.7 457.3 722.8 428.8C730 400.3 716 371.7 720.2 343C724.3 314.3 746.7 285.7 743.2 257C739.7 228.3 710.3 199.7 693.5 171.2C676.7 142.7 672.3 114.3 686.7 85.8C701 57.3 734 28.7 750.5 14.3L767 0L900 0L900 14.3C900 28.7 900 57.3 900 85.8C900 114.3 900 142.7 900 171.2C900 199.7 900 228.3 900 257C900 285.7 900 314.3 900 343C900 371.7 900 400.3 900 428.8C900 457.3 900 485.7 900 514.2C900 542.7 900 571.3 900 585.7L900 600Z" fill="#ff5e60"></path><path d="M725 600L733.8 585.7C742.7 571.3 760.3 542.7 769.5 514.2C778.7 485.7 779.3 457.3 778 428.8C776.7 400.3 773.3 371.7 770.3 343C767.3 314.3 764.7 285.7 764.3 257C764 228.3 766 199.7 772 171.2C778 142.7 788 114.3 783.7 85.8C779.3 57.3 760.7 28.7 751.3 14.3L742 0L900 0L900 14.3C900 28.7 900 57.3 900 85.8C900 114.3 900 142.7 900 171.2C900 199.7 900 228.3 900 257C900 285.7 900 314.3 900 343C900 371.7 900 400.3 900 428.8C900 457.3 900 485.7 900 514.2C900 542.7 900 571.3 900 585.7L900 600Z" fill="#fe6f50"></path><path d="M795 600L795.3 585.7C795.7 571.3 796.3 542.7 799.3 514.2C802.3 485.7 807.7 457.3 817 428.8C826.3 400.3 839.7 371.7 843.3 343C847 314.3 841 285.7 831 257C821 228.3 807 199.7 800.8 171.2C794.7 142.7 796.3 114.3 800.7 85.8C805 57.3 812 28.7 815.5 14.3L819 0L900 0L900 14.3C900 28.7 900 57.3 900 85.8C900 114.3 900 142.7 900 171.2C900 199.7 900 228.3 900 257C900 285.7 900 314.3 900 343C900 371.7 900 400.3 900 428.8C900 457.3 900 485.7 900 514.2C900 542.7 900 571.3 900 585.7L900 600Z" fill="#fa8142"></path></svg>