<svg id="visual" viewBox="0 0 100 540" width="100" height="540" xmlns="http://www.w3.org/2000/svg" xmlns:xlink="http://www.w3.org/1999/xlink" version="1.1"><rect x="0" y="0" width="100" height="540" fill="#12181b"></rect><path d="M26 540L29.5 527.2C33 514.3 40 488.7 40.3 463C40.7 437.3 34.3 411.7 28.2 386C22 360.3 16 334.7 17.2 308.8C18.3 283 26.7 257 34.8 231.2C43 205.3 51 179.7 51 154C51 128.3 43 102.7 34 77C25 51.3 15 25.7 10 12.8L5 0L100 0L100 12.8C100 25.7 100 51.3 100 77C100 102.7 100 128.3 100 154C100 179.7 100 205.3 100 231.2C100 257 100 283 100 308.8C100 334.7 100 360.3 100 386C100 411.7 100 437.3 100 463C100 488.7 100 514.3 100 527.2L100 540Z" fill="#6600ff"></path><path d="M47 540L47.8 527.2C48.7 514.3 50.3 488.7 46.2 463C42 437.3 32 411.7 35 386C38 360.3 54 334.7 57.7 308.8C61.3 283 52.7 257 52 231.2C51.3 205.3 58.7 179.7 59.2 154C59.7 128.3 53.3 102.7 53.3 77C53.3 51.3 59.7 25.7 62.8 12.8L66 0L100 0L100 12.8C100 25.7 100 51.3 100 77C100 102.7 100 128.3 100 154C100 179.7 100 205.3 100 231.2C100 257 100 283 100 308.8C100 334.7 100 360.3 100 386C100 411.7 100 437.3 100 463C100 488.7 100 514.3 100 527.2L100 540Z" fill="#7142ff"></path><path d="M41 540L48.3 527.2C55.7 514.3 70.3 488.7 76.3 463C82.3 437.3 79.7 411.7 76.2 386C72.7 360.3 68.3 334.7 66 308.8C63.7 283 63.3 257 60.2 231.2C57 205.3 51 179.7 55.7 154C60.3 128.3 75.7 102.7 82.5 77C89.3 51.3 87.7 25.7 86.8 12.8L86 0L100 0L100 12.8C100 25.7 100 51.3 100 77C100 102.7 100 128.3 100 154C100 179.7 100 205.3 100 231.2C100 257 100 283 100 308.8C100 334.7 100 360.3 100 386C100 411.7 100 437.3 100 463C100 488.7 100 514.3 100 527.2L100 540Z" fill="#7f64fe"></path><path d="M88 540L85.7 527.2C83.3 514.3 78.7 488.7 75.8 463C73 437.3 72 411.7 74.5 386C77 360.3 83 334.7 87 308.8C91 283 93 257 90.7 231.2C88.3 205.3 81.7 179.7 79 154C76.3 128.3 77.7 102.7 81.8 77C86 51.3 93 25.7 96.5 12.8L100 0L100 0L100 12.8C100 25.7 100 51.3 100 77C100 102.7 100 128.3 100 154C100 179.7 100 205.3 100 231.2C100 257 100 283 100 308.8C100 334.7 100 360.3 100 386C100 411.7 100 437.3 100 463C100 488.7 100 514.3 100 527.2L100 540Z" fill="#9080fa"></path></svg>