<svg id="visual" viewBox="0 0 100 540" width="100" height="540" xmlns="http://www.w3.org/2000/svg" xmlns:xlink="http://www.w3.org/1999/xlink" version="1.1"><rect x="0" y="0" width="100" height="540" fill="#12181b"></rect><path d="M30 540L32.7 530C35.3 520 40.7 500 39.3 480C38 460 30 440 29.2 420C28.3 400 34.7 380 39 360C43.3 340 45.7 320 45.2 300C44.7 280 41.3 260 37.2 240C33 220 28 200 28.7 180C29.3 160 35.7 140 36.2 120C36.7 100 31.3 80 30.2 60C29 40 32 20 33.5 10L35 0L100 0L100 10C100 20 100 40 100 60C100 80 100 100 100 120C100 140 100 160 100 180C100 200 100 220 100 240C100 260 100 280 100 300C100 320 100 340 100 360C100 380 100 400 100 420C100 440 100 460 100 480C100 500 100 520 100 530L100 540Z" fill="#6600ff"></path><path d="M48 540L48.8 530C49.7 520 51.3 500 52.2 480C53 460 53 440 53 420C53 400 53 380 51.7 360C50.3 340 47.7 320 47.3 300C47 280 49 260 51 240C53 220 55 200 56.2 180C57.3 160 57.7 140 56.8 120C56 100 54 80 53.8 60C53.7 40 55.3 20 56.2 10L57 0L100 0L100 10C100 20 100 40 100 60C100 80 100 100 100 120C100 140 100 160 100 180C100 200 100 220 100 240C100 260 100 280 100 300C100 320 100 340 100 360C100 380 100 400 100 420C100 440 100 460 100 480C100 500 100 520 100 530L100 540Z" fill="#7142ff"></path><path d="M56 540L56.2 530C56.3 520 56.7 500 60 480C63.3 460 69.7 440 70.7 420C71.7 400 67.3 380 67.2 360C67 340 71 320 70 300C69 280 63 260 61.2 240C59.3 220 61.7 200 62.5 180C63.3 160 62.7 140 61.5 120C60.3 100 58.7 80 60.3 60C62 40 67 20 69.5 10L72 0L100 0L100 10C100 20 100 40 100 60C100 80 100 100 100 120C100 140 100 160 100 180C100 200 100 220 100 240C100 260 100 280 100 300C100 320 100 340 100 360C100 380 100 400 100 420C100 440 100 460 100 480C100 500 100 520 100 530L100 540Z" fill="#7f64fe"></path><path d="M77 540L77.7 530C78.3 520 79.7 500 81.5 480C83.3 460 85.7 440 86.7 420C87.7 400 87.3 380 85.7 360C84 340 81 320 80 300C79 280 80 260 81.2 240C82.3 220 83.7 200 83.3 180C83 160 81 140 79.3 120C77.7 100 76.3 80 75.8 60C75.3 40 75.7 20 75.8 10L76 0L100 0L100 10C100 20 100 40 100 60C100 80 100 100 100 120C100 140 100 160 100 180C100 200 100 220 100 240C100 260 100 280 100 300C100 320 100 340 100 360C100 380 100 400 100 420C100 440 100 460 100 480C100 500 100 520 100 530L100 540Z" fill="#9080fa"></path></svg>