<svg width="629" height="629" viewBox="0 0 629 629" fill="none" xmlns="http://www.w3.org/2000/svg">
<path fill-rule="evenodd" clip-rule="evenodd" d="M541.597 375.167C524.52 393.17 499.566 409.699 465.414 414.759C406.973 423.417 367.769 388.325 343.25 366.379C340.708 364.103 338.324 361.969 336.093 360.04C265.514 299.014 209.863 327.708 171.419 365.792L113.316 420.199L121.251 469.567C129.226 519.188 175.917 552.949 225.538 544.974L470.396 505.62C520.017 497.644 553.778 450.953 545.802 401.332L541.597 375.167ZM566.169 338.996L575.422 396.572C586.027 462.551 541.136 524.635 475.156 535.239L230.299 574.594C164.319 585.198 102.235 540.308 91.631 474.328L86.9061 444.929L74.1411 456.883C77.5354 500.058 106.673 588.082 196.069 594.781L486.837 548.048C524.591 539.279 596.575 499.823 582.484 412.148L569.392 330.694C568.581 333.199 567.509 335.992 566.169 338.996Z" fill="url(#paint0_linear_105_33)"/>
<path fill-rule="evenodd" clip-rule="evenodd" d="M540.274 177.885L548.881 174.721L542.432 134.593C532.542 97.214 491.087 25.61 404.391 38.2269C317.694 50.8437 185.611 72.8409 130.407 82.2624C89.9264 88.7685 25.441 150.725 35.9321 215.999C41.3909 249.964 45.1859 277.228 48.1429 298.472C52.4526 329.434 54.9826 347.61 58.29 355.108L71.6785 350.185L52.4452 230.518C41.8407 164.538 86.7313 102.455 152.711 91.8501L397.569 52.4959C463.548 41.8914 525.632 86.7819 536.236 152.762L540.274 177.885ZM511.585 188.434L506.617 157.522C498.641 107.901 451.95 74.1405 402.329 82.1157L157.472 121.47C107.85 129.445 74.0898 176.136 82.0651 225.757L100.368 339.636L511.585 188.434Z" fill="url(#paint1_linear_105_33)"/>
<rect x="22.9203" y="103.533" width="508" height="508" rx="130" transform="rotate(-9.13066 22.9203 103.533)" stroke="url(#paint2_linear_105_33)" stroke-width="40"/>
<defs>
<linearGradient id="paint0_linear_105_33" x1="109.191" y1="366.171" x2="548.051" y2="509.85" gradientUnits="userSpaceOnUse">
<stop stop-color="#05925F"/>
<stop offset="1" stop-color="#057092"/>
</linearGradient>
<linearGradient id="paint1_linear_105_33" x1="-83.2361" y1="10.1959" x2="440.589" y2="329.619" gradientUnits="userSpaceOnUse">
<stop stop-color="#1EFB91"/>
<stop offset="1" stop-color="#057092"/>
</linearGradient>
<linearGradient id="paint2_linear_105_33" x1="21" y1="102.46" x2="534.5" y2="660.46" gradientUnits="userSpaceOnUse">
<stop stop-color="#1EFB91"/>
<stop offset="1" stop-color="#057092"/>
</linearGradient>
</defs>
</svg>
