<svg id="visual" viewBox="0 0 100 540" width="100" height="540" xmlns="http://www.w3.org/2000/svg" xmlns:xlink="http://www.w3.org/1999/xlink" version="1.1"><rect x="0" y="0" width="100" height="540" fill="#12181b"></rect><path d="M31 540L34.7 527.2C38.3 514.3 45.7 488.7 44.2 463C42.7 437.3 32.3 411.7 29.5 386C26.7 360.3 31.3 334.7 32.3 308.8C33.3 283 30.7 257 33.5 231.2C36.3 205.3 44.7 179.7 44.2 154C43.7 128.3 34.3 102.7 33.7 77C33 51.3 41 25.7 45 12.8L49 0L100 0L100 12.8C100 25.7 100 51.3 100 77C100 102.7 100 128.3 100 154C100 179.7 100 205.3 100 231.2C100 257 100 283 100 308.8C100 334.7 100 360.3 100 386C100 411.7 100 437.3 100 463C100 488.7 100 514.3 100 527.2L100 540Z" fill="#ff4088"></path><path d="M41 540L42.5 527.2C44 514.3 47 488.7 48.2 463C49.3 437.3 48.7 411.7 48.7 386C48.7 360.3 49.3 334.7 48 308.8C46.7 283 43.3 257 42.3 231.2C41.3 205.3 42.7 179.7 43.8 154C45 128.3 46 102.7 46.3 77C46.7 51.3 46.3 25.7 46.2 12.8L46 0L100 0L100 12.8C100 25.7 100 51.3 100 77C100 102.7 100 128.3 100 154C100 179.7 100 205.3 100 231.2C100 257 100 283 100 308.8C100 334.7 100 360.3 100 386C100 411.7 100 437.3 100 463C100 488.7 100 514.3 100 527.2L100 540Z" fill="#ff536c"></path><path d="M56 540L59.3 527.2C62.7 514.3 69.3 488.7 72.3 463C75.3 437.3 74.7 411.7 72 386C69.3 360.3 64.7 334.7 61.7 308.8C58.7 283 57.3 257 59.2 231.2C61 205.3 66 179.7 66 154C66 128.3 61 102.7 59 77C57 51.3 58 25.7 58.5 12.8L59 0L100 0L100 12.8C100 25.7 100 51.3 100 77C100 102.7 100 128.3 100 154C100 179.7 100 205.3 100 231.2C100 257 100 283 100 308.8C100 334.7 100 360.3 100 386C100 411.7 100 437.3 100 463C100 488.7 100 514.3 100 527.2L100 540Z" fill="#ff6955"></path><path d="M81 540L80.3 527.2C79.7 514.3 78.3 488.7 77.5 463C76.7 437.3 76.3 411.7 76.2 386C76 360.3 76 334.7 75.5 308.8C75 283 74 257 73.3 231.2C72.7 205.3 72.3 179.7 74.5 154C76.7 128.3 81.3 102.7 83.3 77C85.3 51.3 84.7 25.7 84.3 12.8L84 0L100 0L100 12.8C100 25.7 100 51.3 100 77C100 102.7 100 128.3 100 154C100 179.7 100 205.3 100 231.2C100 257 100 283 100 308.8C100 334.7 100 360.3 100 386C100 411.7 100 437.3 100 463C100 488.7 100 514.3 100 527.2L100 540Z" fill="#fa8142"></path></svg>